# xmcd CD database file
#
# Track frame offsets:
#	150
#	25295
#	48600
#	66625
#	86577
#	103922
#	128627
#	146960
#	165870
#	191462
#	208550
#	233560
#	250992
#
# Disc length: 3721 seconds
#
# Revision: 13
# Processed by: cddbd v1.5.2PL0 Copyright (c) Steve Scherf et al.
# Submitted via: CDex 1.70beta3
#
DISCID=b90e870d
DTITLE=徳永英明 - VOCALIST 3
DYEAR=2007
DGENRE=JPop
TTITLE0=恋におちて -Fall in Love-
TTITLE1=PRIDE
TTITLE2=桃色吐息
TTITLE3=わかれうた
TTITLE4=やさしいキスをして
TTITLE5=Time goes by
TTITLE6=たそがれマイ・ラブ
TTITLE7=元気を出して
TTITLE8=ENDLESS STORY
TTITLE9=まちぶせ
TTITLE10=月のしずく
TTITLE11=迷い道
TTITLE12=CAN YOU CELEBRATE?
EXTD=YEAR: 2007
EXTT0=
EXTT1=
EXTT2=
EXTT3=
EXTT4=
EXTT5=
EXTT6=
EXTT7=
EXTT8=
EXTT9=
EXTT10=
EXTT11=
EXTT12=
PLAYORDER=
